<?xml version="1.0" encoding="utf-8"?>
<!-- Svg Vector Icons : http://www.onlinewebfonts.com/icon -->
<!DOCTYPE svg PUBLIC "-//W3C//DTD SVG 1.1//EN" "http://www.w3.org/Graphics/SVG/1.1/DTD/svg11.dtd">
<svg version="1.1" xmlns="http://www.w3.org/2000/svg" xmlns:xlink="http://www.w3.org/1999/xlink" x="0px" y="0px" viewBox="0 0 256 256" enable-background="new 0 0 256 256" xml:space="preserve">
<metadata> Svg Vector Icons : http://www.onlinewebfonts.com/icon </metadata>
<g><g><path fill="#000000" d="M246,128.1c0-0.1,0-0.3,0-0.5c-0.6-55.4-40.1-104.2-94.6-115.3C96.6,1.1,40.2,31.5,18.8,83C-2.8,135.1,16.6,195.4,63,226.7c46.5,31.4,110.6,23.3,149.6-16.2c21.4-21.7,33.1-51.6,33.5-81.9C246,128.4,246,128.2,246,128.1z M131.3,231.6c-55.2,2.1-103-41.9-106.8-96.8C20.8,79.8,63,30.3,117.8,24.9c54.8-5.3,105.8,35,112.8,89.8c0.6,4.4,0.8,8.9,0.8,13.4C231.1,183.5,186.8,229.6,131.3,231.6z"/><path fill="#000000" d="M188.2,134.3c-1.4-1.4-3.7-1.4-5.1,0c-4.4,4.4-8.7,8.7-13.1,13.1c-3.3,3.3,1.8,8.5,5.1,5.1c2.2-2.2,4.3-4.4,6.5-6.5c-2.9,25-23,44.6-48.3,46.7c0-25.6,0-51.3,0-77c6.7,0,13.3,0,20,0c4.7,0,4.7-7.3,0-7.3c-6.7,0-13.3,0-20,0c0-3.9,0-7.8,0-11.7c8.3-1.7,14.1-9.7,15-18c0.1-0.3,0.1-0.6,0.1-1c0-0.3,0-0.7-0.1-1c-0.9-10.4-8.7-17.8-19.2-18.4c-10.9-0.6-18.8,9.2-19.3,19.3c-0.5,9.8,7.4,17.2,16.3,18.9c0,3.9,0,7.9,0,11.8c-6.7,0-13.3,0-20,0c-4.7,0-4.7,7.3,0,7.3c6.7,0,13.3,0,20,0c0,25.7,0,51.4,0,77.1c-25.3-1.5-45.3-22.1-48.3-46.8c2.2,2.2,4.3,4.3,6.5,6.5c3.3,3.3,8.5-1.8,5.1-5.1c-4.4-4.4-8.7-8.7-13.1-13.1c-1.4-1.4-3.7-1.4-5.1,0c-4.4,4.4-8.7,8.7-13.1,13.1c-3.3,3.3,1.8,8.5,5.1,5.1c2.4-2.4,4.8-4.8,7.1-7.1c2.7,29.3,26.2,52.4,55.7,54.6c0,4.2,0,8.4,0,12.6c0,4.7,7.2,4.7,7.2,0c0-4.2,0-8.3,0-12.5c29.5-1.5,52.9-25.9,55.6-54.7c2.4,2.4,4.8,4.8,7.2,7.2c3.3,3.3,8.5-1.8,5.1-5.1C196.9,143,192.6,138.6,188.2,134.3z M117.1,77.7c-0.8-15.5,23.3-15.5,24.1,0C140.4,93.3,117.9,93.3,117.1,77.7z"/></g></g>
</svg>